# xmcd
#
# Track frame offsets:
#  150
#  17625
#  35250
#  47025
#  62100
#  75825
#  87750
#  110475
#  125925
#  139350
#  155100
#  166800
#  179475
#  196200
#  213300
#  215400
#  217275
#  221250
#  225525
#  227775
#
# Disc length: 3083 seconds
#
# Revision: 0
# Processed by: cddbd v1.5.2PL0 Copyright (c) Steve Scherf et al.
# Submitted via: Collectorz.com_Music_Collector 6.11
#
DISCID=210c0914
DTITLE=Various Artist - NfS Country Singles Volume 24
DYEAR=1995
DGENRE=Country
TTITLE0=Brian letton - A Stones Throw  From You
TTITLE1=Tanya Self - He Just Knows
TTITLE2=J. R. Williams - Pioneers
TTITLE3=Jimmy Little - Rising When You Fall
TTITLE4=The Crosby Sisters - Give Me Flowers When I'm Living
TTITLE5=Terry Gordon - I Just Can't Get Enough Of Old George Jones
TTITLE6=Jeanette Wormald - To The Mallee Born
TTITLE7=Great Divide - NOthing Kinda Feeling
TTITLE8=Jason McDaniel - Southerly Change
TTITLE9=Wally Sparrow - Rufus River
TTITLE10=Scott Reilly - Dr. Love
TTITLE11=Maurice Hardy and Alice Vernon - Never Saw The Danger
TTITLE12=Don Williams - Fever
TTITLE13=Jimmy Little - Yorta Yorta Man
TTITLE14=Jimmy Little - Interview 
TTITLE15=Jimmy Little - Interview
TTITLE16=Jimmy Little - Interview
TTITLE17=Jimmy Little - Interview
TTITLE18=Jimmy Little - Interview
TTITLE19=Jimmy Little - Interview
EXTD=
EXTT0=
EXTT1=
EXTT2=
EXTT3=
EXTT4=
EXTT5=
EXTT6=
EXTT7=
EXTT8=
EXTT9=
EXTT10=
EXTT11=
EXTT12=
EXTT13=
EXTT14=
EXTT15=
EXTT16=
EXTT17=
EXTT18=
EXTT19=
PLAYORDER=
